<!-- icon666.com - MILLIONS vector ICONS FREE --><svg version="1.1" id="Capa_1" xmlns="http://www.w3.org/2000/svg" xmlns:xlink="http://www.w3.org/1999/xlink" x="0px" y="0px" viewBox="0 0 477.904 477.904" style="enable-background:new 0 0 477.904 477.904;" xml:space="preserve"><g><g><path d="M433.804,101.115l-143.633,95.761v24.986h34.133c9.426,0,17.067,7.641,17.067,17.067v78.268l77.961,77.978 C491.638,312.319,497.625,190.669,433.804,101.115z"></path></g></g><g><g><path d="M170.705,10.047l87.177,87.228l95.283-68.062C297.36-1.337,231.638-8.24,170.705,10.047z"></path></g></g><g><g><path d="M119.505,324.261c-9.426,0-17.067-7.641-17.067-17.067v-68.267c0-9.426,7.641-17.067,17.067-17.067h51.2v-51.2H10.107 c-32.457,108.03,15.264,224.019,114.347,277.931l80.384-64.256v-60.075H119.505z"></path></g></g><g><g><path d="M307.238,324.261v-68.267h-34.133c-9.426,0-17.067-7.641-17.067-17.067v-51.2c-0.001-5.705,2.849-11.033,7.595-14.199 l148.361-98.901c-8.748-9.187-18.21-17.667-28.297-25.361l-117.76,84.087c-6.785,4.849-16.081,4.084-21.982-1.809L136.059,23.632 C86.744,47.327,47.002,87.159,23.419,136.528h164.352c9.426,0,17.067,7.641,17.067,17.067v85.333 c0,9.426-7.641,17.067-17.067,17.067h-51.2v34.133h85.333c9.426,0,17.067,7.641,17.067,17.067v85.333 c0.007,5.19-2.348,10.102-6.4,13.346l-72.806,58.214c80.82,28.87,170.936,11.735,235.52-44.783l-83.046-82.961 C309.033,333.141,307.234,328.793,307.238,324.261z"></path></g></g></svg>